:FULLY-SPECIFIED
:FORCE-ALL-JOINTS-BE-3DOF
:DEGREES
3160
root 0.944131 16.9206 -33.3685 6.06998 5.29967 -3.70401
lfemur -18.7315 -2.42641 -8.23019
ltibia 35.3456 -0 0
lfoot -16.4215 7.54442 3.22796e-05
ltoes -40.6975 0 0
rfemur -19.5266 -0.259848 18.4934
rtibia 39.1978 -0 0
rfoot -12.2186 -21.1129 3.78024e-05
rtoes -16.4043 0 0
lowerback 5.83181 1.51207 -0.514676
upperback -4.05671 2.1145 1.85304
thorax -7.62068 1.12253 1.97375
lowerneck -5.34355 -5.15179 -7.90288
upperneck 9.19733 -6.80543 5.98536
head 4.09628 -3.34649 2.74252
lclavicle 6.67528e-16 -2.30534e-15 3.97608e-33
lhumerus -33.3905 -18.7111 94.9457
lradius 52.0341 -0 0
lwrist -8.77491 0 0
lhand -34.0437 29.4799 -8.82863e-06
lfingers 7.12502 -0 0
lthumb -7.22175 59.3359 -8.49102e-06
rclavicle 6.67528e-16 -2.30534e-15 3.97608e-33
rhumerus -35.5341 14.4464 -81.4343
rradius 51.3583 -0 0
rwrist 1.37852 0 0
rhand -29.3062 -34.1062 0.000175155
rfingers 7.12502 -0 0
rthumb -2.64743 -64.0693 0.000166249
3161
root 0.945627 16.9211 -33.3674 6.06996 5.28004 -3.70919
lfemur -18.7151 -2.42495 -8.2325
ltibia 35.3363 -0 0
lfoot -16.4193 7.56166 7.08067e-05
ltoes -40.688 0 0
rfemur -19.5163 -0.253294 18.4931
rtibia 39.1789 -0 0
rfoot -12.2141 -21.103 8.29212e-05
rtoes -16.4029 0 0
lowerback 5.82749 1.51479 -0.516298
upperback -4.06151 2.11809 1.85347
thorax -7.62357 1.12445 1.97472
lowerneck -5.34947 -5.14803 -7.89995
upperneck 9.21704 -6.80093 5.98471
head 4.10285 -3.3441 2.74192
lclavicle 5.41077e-16 -2.26852e-15 8.72167e-33
lhumerus -33.3693 -18.6492 94.9207
lradius 51.8942 -0 0
lwrist -8.83154 0 0
lhand -34.045 29.4882 -1.93659e-05
lfingers 7.12502 -0 0
lthumb -7.22294 59.3442 -1.86254e-05
rclavicle 5.41077e-16 -2.26852e-15 8.72167e-33
rhumerus -35.53 14.3777 -81.4212
rradius 51.2273 -0 0
rwrist 1.3961 0 0
rhand -29.271 -34.1004 0.000384218
rfingers 7.12502 -0 0
rthumb -2.61339 -64.0636 0.00036468
3162
root 0.947666 16.9219 -33.3658 6.06994 5.25326 -3.71626
lfemur -18.6928 -2.42295 -8.23565
ltibia 35.3236 -0 0
lfoot -16.4163 7.58519 0.000122293
ltoes -40.6749 0 0
rfemur -19.5022 -0.244355 18.4926
rtibia 39.1532 -0 0
rfoot -12.208 -21.0896 0.000143216
rtoes -16.401 0 0
lowerback 5.82159 1.5185 -0.518509
upperback -4.06805 2.12299 1.85406
thorax -7.62751 1.12707 1.97605
lowerneck -5.35755 -5.1429 -7.89596
upperneck 9.24391 -6.79478 5.98382
head 4.11181 -3.34085 2.74109
lclavicle 3.68605e-16 -2.2183e-15 1.50634e-32
lhumerus -33.3405 -18.5649 94.8867
lradius 51.7033 -0 0
lwrist -8.90878 0 0
lhand -34.0466 29.4996 -3.34475e-05
lfingers 7.12502 -0 0
lthumb -7.22457 59.3555 -3.21684e-05
rclavicle 3.68605e-16 -2.2183e-15 1.50634e-32
rhumerus -35.5244 14.284 -81.4035
rradius 51.0487 -0 0
rwrist 1.42009 0 0
rhand -29.2229 -34.0925 0.000663609
rfingers 7.12502 -0 0
rthumb -2.56695 -64.0558 0.000629862
3163
root 0.950219 16.9228 -33.3638 6.06991 5.21975 -3.7251
lfemur -18.6648 -2.42044 -8.23959
ltibia 35.3077 -0 0
lfoot -16.4126 7.61463 0.000185003
ltoes -40.6586 0 0
rfemur -19.4846 -0.233166 18.492
rtibia 39.1209 -0 0
rfoot -12.2003 -21.0728 0.000216654
rtoes -16.3987 0 0
lowerback 5.81421 1.52314 -0.521278
upperback -4.07624 2.12912 1.85479
thorax -7.63245 1.13034 1.97772
lowerneck -5.36766 -5.13648 -7.89096
upperneck 9.27755 -6.78709 5.98272
head 4.12303 -3.33677 2.74006
lclavicle 1.52741e-16 -2.15545e-15 2.27877e-32
lhumerus -33.3045 -18.4593 94.8442
lradius 51.4643 -0 0
lwrist -9.00545 0 0
lhand -34.0488 29.5139 -5.05988e-05
lfingers 7.12502 -0 0
lthumb -7.22661 59.3697 -4.86638e-05
rclavicle 1.52741e-16 -2.15545e-15 2.27877e-32
rhumerus -35.5175 14.1666 -81.3813
rradius 50.825 -0 0
rwrist 1.45011 0 0
rhand -29.1627 -34.0825 0.00100392
rfingers 7.12502 -0 0
rthumb -2.50882 -64.046 0.000952865
3164
root 0.953253 16.9239 -33.3614 6.06989 5.17991 -3.73561
lfemur -18.6316 -2.41746 -8.24427
ltibia 35.2887 -0 0
lfoot -16.4081 7.64963 0.000257055
ltoes -40.6392 0 0
rfemur -19.4636 -0.219865 18.4913
rtibia 39.0826 -0 0
rfoot -12.1912 -21.0528 0.000301032
rtoes -16.3958 0 0
lowerback 5.80543 1.52865 -0.52457
upperback -4.08597 2.1364 1.85566
thorax -7.63832 1.13424 1.9797
lowerneck -5.37968 -5.12884 -7.88502
upperneck 9.31753 -6.77794 5.98141
head 4.13636 -3.33193 2.73884
lclavicle -1.03886e-16 -2.08072e-15 3.16624e-32
lhumerus -33.2618 -18.3337 94.7937
lradius 51.1803 -0 0
lwrist -9.12038 0 0
lhand -34.0513 29.5309 -7.03047e-05
lfingers 7.12502 -0 0
lthumb -7.22903 59.3866 -6.76162e-05
rclavicle -1.03886e-16 -2.08072e-15 3.16624e-32
rhumerus -35.5093 14.0272 -81.355
rradius 50.5592 -0 0
rwrist 1.4858 0 0
rhand -29.0912 -34.0707 0.00139493
rfingers 7.12502 -0 0
rthumb -2.43972 -64.0344 0.00132399
3165
root 0.956738 16.9252 -33.3587 6.06987 5.13415 -3.74768
lfemur -18.5935 -2.41404 -8.24965
ltibia 35.267 -0 0
lfoot -16.403 7.68983 0.00033646
ltoes -40.617 0 0
rfemur -19.4396 -0.204587 18.4905
rtibia 39.0385 -0 0
rfoot -12.1807 -21.0298 0.00039402
rtoes -16.3926 0 0
lowerback 5.79535 1.53498 -0.528353
upperback -4.09716 2.14477 1.85666
thorax -7.64506 1.13871 1.98197
lowerneck -5.39349 -5.12007 -7.8782
upperneck 9.36346 -6.76744 5.97991
head 4.15167 -3.32636 2.73743
lclavicle -3.98644e-16 -1.99489e-15 4.14428e-32
lhumerus -33.213 -18.1894 94.7359
lradius 50.8541 -0 0
lwrist -9.25238 0 0
lhand -34.0542 29.5503 -9.20218e-05
lfingers 7.12502 -0 0
lthumb -7.23182 59.406 -8.85028e-05
rclavicle -3.98644e-16 -1.99489e-15 4.14428e-32
rhumerus -35.5 13.867 -81.3248
rradius 50.2539 -0 0
rwrist 1.5268 0 0
rhand -29.009 -34.0572 0.00182586
rfingers 7.12502 -0 0
rthumb -2.36035 -64.0211 0.001733
3166
root 0.960643 16.9266 -33.3556 6.06986 5.08288 -3.7612
lfemur -18.5507 -2.41019 -8.25568
ltibia 35.2427 -0 0
lfoot -16.3973 7.73487 0.000421172
ltoes -40.592 0 0
rfemur -19.4126 -0.187468 18.4896
rtibia 38.9892 -0 0
rfoot -12.169 -21.0041 0.000493223
rtoes -16.3889 0 0
lowerback 5.78406 1.54208 -0.532593
upperback -4.10969 2.15415 1.85778
thorax -7.65261 1.14372 1.98452
lowerneck -5.40895 -5.11025 -7.87055
upperneck 9.41491 -6.75566 5.97825
head 4.16883 -3.32012 2.73586
lclavicle -7.28906e-16 -1.89872e-15 5.18768e-32
lhumerus -33.1586 -18.0276 94.6714
lradius 50.4884 -0 0
lwrist -9.40029 0 0
lhand -34.0574 29.5722 -0.00011519
lfingers 7.12502 -0 0
lthumb -7.23494 59.4278 -0.000110785
rclavicle -7.28906e-16 -1.89872e-15 5.18768e-32
rhumerus -35.4896 13.6875 -81.291
rradius 49.9118 -0 0
rwrist 1.57273 0 0
rhand -28.9169 -34.042 0.0022856
rfingers 7.12502 -0 0
rthumb -2.27142 -64.0062 0.00216936
3167
root 0.964937 16.9282 -33.3523 6.06986 5.0265 -3.77607
lfemur -18.5037 -2.40596 -8.2623
ltibia 35.2159 -0 0
lfoot -16.391 7.7844 0.000509122
ltoes -40.5646 0 0
rfemur -19.383 -0.168645 18.4886
rtibia 38.9349 -0 0
rfoot -12.1561 -20.9758 0.000596216
rtoes -16.3849 0 0
lowerback 5.77164 1.54988 -0.537256
upperback -4.12346 2.16446 1.859
thorax -7.66091 1.14923 1.98732
lowerneck -5.42596 -5.09944 -7.86216
upperneck 9.47149 -6.74271 5.97643
head 4.18769 -3.31327 2.73413
lclavicle -1.09204e-15 -1.79298e-15 6.27094e-32
lhumerus -33.099 -17.8498 94.6007
lradius 50.0864 -0 0
lwrist -9.56291 0 0
lhand -34.0609 29.5962 -0.000139243
lfingers 7.12502 -0 0
lthumb -7.23837 59.4517 -0.000133919
rclavicle -1.09204e-15 -1.79298e-15 6.27094e-32
rhumerus -35.4784 13.4901 -81.254
rradius 49.5354 -0 0
rwrist 1.62324 0 0
rhand -28.8157 -34.0253 0.00276293
rfingers 7.12502 -0 0
rthumb -2.17364 -63.9897 0.00262241
3168
root 0.969589 16.9299 -33.3487 6.06988 4.96543 -3.79217
lfemur -18.4528 -2.40137 -8.26946
ltibia 35.1869 -0 0
lfoot -16.3842 7.83806 0.000598257
ltoes -40.5349 0 0
rfemur -19.3509 -0.148254 18.4875
rtibia 38.8761 -0 0
rfoot -12.1421 -20.9451 0.000700598
rtoes -16.3805 0 0
lowerback 5.75818 1.55833 -0.542309
upperback -4.13839 2.17563 1.86033
thorax -7.66991 1.1552 1.99035
lowerneck -5.44437 -5.08773 -7.85306
upperneck 9.53278 -6.72869 5.97447
head 4.20813 -3.30584 2.73227
lclavicle -1.48542e-15 -1.67844e-15 7.3688e-32
lhumerus -33.0347 -17.657 94.5245
lradius 49.651 -0 0
lwrist -9.73905 0 0
lhand -34.0648 29.6221 -0.000163621
lfingers 7.12502 -0 0
lthumb -7.24209 59.4775 -0.000157364
rclavicle -1.48542e-15 -1.67844e-15 7.3688e-32
rhumerus -35.4664 13.2763 -81.2139
rradius 49.1279 -0 0
rwrist 1.67795 0 0
rhand -28.706 -34.0072 0.00324671
rfingers 7.12502 -0 0
rthumb -2.06771 -63.972 0.00308158
3169
root 0.974567 16.9317 -33.3448 6.06992 4.90007 -3.80941
lfemur -18.3982 -2.39646 -8.27713
ltibia 35.1558 -0 0
lfoot -16.3769 7.89548 0.000686577
ltoes -40.503 0 0
rfemur -19.3166 -0.12643 18.4864
rtibia 38.8132 -0 0
rfoot -12.1271 -20.9123 0.000804024
rtoes -16.3759 0 0
lowerback 5.74378 1.56737 -0.54772
upperback -4.15436 2.18759 1.86174
thorax -7.67953 1.16159 1.99359
lowerneck -5.46408 -5.07519 -7.84333
upperneck 9.59836 -6.71367 5.9724
head 4.23 -3.29788 2.73027
lclavicle -1.90641e-15 -1.55585e-15 8.45661e-32
lhumerus -32.9663 -17.4505 94.4432
lradius 49.185 -0 0
lwrist -9.92758 0 0
lhand -34.0689 29.65 -0.000187776
lfingers 7.12502 -0 0
lthumb -7.24607 59.5053 -0.000180595
rclavicle -1.90641e-15 -1.55585e-15 8.45661e-32
rhumerus -35.4538 13.0474 -81.1711
rradius 48.6917 -0 0
rwrist 1.7365 0 0
rhand -28.5886 -33.9878 0.00372607
rfingers 7.12502 -0 0
rthumb -1.95434 -63.9529 0.00353656
